<?xml version="1.0" standalone="no"?>
<!DOCTYPE svg PUBLIC "-//W3C//DTD SVG 20010904//EN"
 "http://www.w3.org/TR/2001/REC-SVG-20010904/DTD/svg10.dtd">
<svg version="1.0" xmlns="http://www.w3.org/2000/svg"
     width="153" height="88" viewBox="0 0 936.000000 440.000000"
 preserveAspectRatio="xMidYMid meet">

<g transform="translate(0.000000,440.000000) scale(0.100000,-0.100000)"
fill="#000000" stroke="none">
<path  d="M0 2200 l0 -2200 4680 0 4680 0 0 2200 0 2200 -4680 0 -4680 0 0
-2200z m8135 2002 c175 -51 335 -144 452 -264 95 -96 136 -152 188 -253 58
-115 92 -231 105 -359 14 -148 14 -2247 0 -2385 -47 -453 -368 -803 -820 -893
-53 -11 -729 -13 -3530 -13 l-3465 0 -102 27 c-395 103 -693 430 -748 823 -12
82 -15 305 -15 1235 0 657 4 1173 10 1226 46 432 396 800 830 873 33 5 1479 8
3535 7 l3480 -1 80 -23z"/>
<path  d="M1095 4153 c-71 -9 -204 -48 -271 -78 -255 -116 -442 -340 -521 -622
l-28 -98 -3 -1145 c-4 -1225 -1 -1297 44 -1443 95 -301 333 -534 644 -629 l75
-23 3465 -3 c2406 -2 3486 1 3534 8 319 49 615 295 722 601 56 158 54 108 54
1415 l0 1211 -25 99 c-77 309 -307 560 -610 664 -153 53 39 50 -3639 49 -1876
-1 -3424 -4 -3441 -6z m1781 -219 c62 -36 101 -86 120 -150 16 -54 16 -155 1
-171 -11 -10 -78 15 -122 45 -62 43 -97 108 -103 191 -2 38 -2 81 2 96 6 23
11 26 33 20 15 -3 46 -18 69 -31z m-628 -10 c65 -32 101 -88 109 -169 6 -53 5
-55 -19 -55 -36 0 -121 46 -144 77 -28 38 -44 88 -44 134 0 34 3 39 23 39 13
0 47 -12 75 -26z m270 1 c90 -27 151 -100 167 -202 l7 -43 -39 0 c-123 0 -218
87 -239 218 -6 41 -6 42 23 42 16 0 53 -7 81 -15z m701 -51 c58 -66 81 -120
81 -187 0 -57 -27 -144 -56 -182 -15 -19 -17 -18 -69 38 -56 59 -85 125 -85
193 0 55 53 184 75 184 7 0 31 -21 54 -46z m-1191 -82 c38 -27 86 -106 78
-127 -4 -11 -21 -15 -60 -15 -63 0 -101 12 -134 43 -34 31 -75 104 -67 118 5
7 33 10 79 7 54 -2 79 -9 104 -26z m1578 -190 c25 -50 29 -68 29 -142 0 -76
-4 -92 -32 -146 -17 -33 -39 -67 -48 -74 -16 -13 -21 -11 -47 20 -84 98 -117
194 -99 281 14 65 36 115 67 157 l26 34 38 -37 c21 -20 51 -62 66 -93z m-1843
87 c27 -14 97 -80 97 -92 0 -29 -139 -49 -183 -26 -32 16 -97 81 -97 96 0 7 1
13 3 13 1 0 20 7 42 15 42 15 102 12 138 -6z m957 -58 c255 -52 501 -179 686
-354 179 -169 306 -367 379 -591 90 -275 92 -599 5 -866 -30 -93 -108 -264
-135 -295 l-17 -20 7 20 c88 255 108 362 108 570 1 402 -158 776 -444 1050
-211 202 -439 322 -734 387 -81 17 -134 22 -280 22 -203 1 -316 -17 -494 -79
-53 -19 -97 -32 -99 -30 -6 5 118 72 195 104 95 41 226 77 343 96 123 19 349
13 480 -14z m4620 -21 c30 -30 27 -83 -6 -109 -35 -27 -66 -26 -100 2 -33 28
-37 76 -9 107 25 27 88 27 115 0z m320 0 c30 -30 27 -83 -6 -109 -43 -34 -102
-21 -123 26 -16 34 -14 47 10 77 26 33 88 37 119 6z m-3235 -22 c22 -20 27
-34 32 -95 l6 -72 29 22 c36 27 126 29 173 4 123 -64 155 -259 63 -372 -50
-59 -100 -80 -198 -80 -107 0 -161 26 -200 95 -24 44 -25 52 -28 267 -2 123
-2 230 2 238 9 25 89 20 121 -7z m1050 -3 c24 -23 25 -30 25 -152 0 -70 4
-134 8 -141 6 -9 18 2 42 35 18 27 49 65 69 86 34 36 37 37 108 37 40 0 73 -3
73 -7 0 -5 -34 -48 -75 -98 -41 -49 -75 -94 -75 -98 0 -20 97 -142 127 -159
40 -24 41 -40 7 -67 -31 -24 -87 -27 -124 -7 -14 8 -50 50 -81 93 -30 43 -60
77 -65 76 -5 -2 -11 -42 -14 -90 l-5 -88 -49 1 c-40 0 -53 5 -72 28 -24 27
-24 28 -24 302 l0 274 50 0 c41 0 56 -5 75 -25z m504 10 c16 -8 31 -22 35 -30
3 -9 6 -75 6 -146 0 -145 7 -157 52 -86 15 23 43 59 64 80 35 36 38 37 110 37
41 0 74 -3 74 -6 0 -3 -34 -46 -75 -97 -41 -50 -75 -96 -75 -102 1 -21 87
-130 120 -153 45 -30 47 -36 15 -68 -23 -23 -33 -26 -75 -22 -60 6 -69 13
-137 110 -30 43 -59 78 -63 78 -5 0 -11 -42 -12 -92 l-3 -93 -49 1 c-40 0 -53
5 -72 28 -24 27 -24 28 -24 302 l0 274 40 0 c23 0 54 -7 69 -15z m-3514 -115
c8 -12 -20 -76 -51 -117 -38 -50 -97 -76 -176 -77 -36 -1 -69 2 -73 6 -10 10
42 111 74 142 16 15 46 34 67 41 45 16 150 20 159 5z m-328 -17 c9 -24 -36
-101 -79 -136 -27 -21 -52 -31 -95 -36 -85 -10 -96 -6 -89 32 8 39 50 101 84
123 54 35 168 46 179 17z m3032 -23 c21 -10 50 -36 62 -57 22 -34 24 -49 24
-158 0 -186 -30 -224 -187 -233 -68 -4 -84 -1 -130 21 -61 30 -88 68 -88 125
0 85 77 141 198 142 39 0 54 4 59 17 19 49 -114 73 -192 33 -22 -11 -41 -20
-42 -20 -2 0 -3 18 -3 41 0 77 82 123 203 114 31 -3 75 -14 96 -25z m1488 19
c117 -30 185 -187 107 -248 -31 -25 -107 -41 -189 -41 -36 0 -65 -4 -65 -8 0
-5 11 -19 24 -31 23 -21 32 -23 113 -19 48 2 95 6 103 9 27 8 24 -45 -5 -79
-30 -36 -77 -52 -150 -52 -73 0 -121 17 -166 57 -51 46 -70 92 -72 168 -2 82
23 145 79 194 64 56 133 72 221 50z m448 -4 c37 -15 58 -52 53 -89 -3 -18 -10
-21 -50 -21 -78 -1 -82 -10 -88 -188 l-5 -152 -43 1 c-33 1 -50 7 -69 27 -26
26 -27 29 -27 169 -1 126 1 148 20 183 37 71 131 103 209 70z m209 -25 c38
-14 46 -40 54 -178 l7 -127 35 -11 c40 -13 47 -32 30 -75 -15 -34 -41 -43
-111 -37 -100 10 -119 52 -119 266 0 87 3 162 7 165 9 10 68 8 97 -3z m343
-25 c22 -25 23 -32 23 -223 0 -170 -3 -203 -19 -238 -29 -63 -82 -95 -161 -96
-52 -1 -80 24 -80 67 0 33 13 45 50 45 10 0 28 12 39 26 20 25 21 39 21 234 0
114 3 210 8 214 4 4 27 6 52 3 32 -4 51 -13 67 -32z m-5807 3 c0 -32 -39 -97
-72 -121 -31 -23 -138 -37 -138 -18 0 22 31 86 53 110 29 31 73 50 120 51 32
0 37 -3 37 -22z m925 -2 c19 -8 35 -22 35 -30 0 -8 -18 -37 -39 -64 -51 -64
-125 -102 -199 -102 -66 0 -142 18 -149 36 -12 32 88 136 157 163 38 15 156
13 195 -3z m-1161 -4 c10 -16 -14 -81 -41 -113 -32 -37 -79 -59 -128 -59 -27
0 -35 4 -35 18 1 32 38 99 67 120 44 31 126 52 137 34z m1464 -167 c23 -10 42
-24 42 -31 0 -23 -99 -115 -147 -136 -30 -13 -69 -21 -103 -21 -55 0 -155 26
-166 44 -13 22 75 116 141 150 33 17 53 19 115 16 41 -3 94 -13 118 -22z m193
-201 c81 -24 88 -34 54 -84 -99 -143 -254 -185 -421 -115 -32 13 -34 16 -23
37 38 71 114 138 186 164 52 18 138 17 204 -2z m-1529 -309 c115 -30 199 -104
228 -200 6 -22 10 -78 8 -124 l-3 -84 -30 25 c-75 63 -192 99 -323 99 -179 1
-306 -82 -349 -230 -24 -84 -14 -223 22 -296 50 -103 134 -164 257 -185 109
-19 280 16 370 75 59 39 61 36 56 -65 -4 -69 -11 -100 -30 -137 -30 -57 -100
-114 -178 -145 -77 -30 -260 -37 -362 -14 -311 69 -515 345 -495 671 10 178
93 357 215 465 66 58 191 123 277 144 82 20 262 20 337 1z m1153 0 c171 -44
311 -155 383 -306 58 -122 76 -214 69 -363 -9 -205 -63 -344 -176 -457 -117
-117 -258 -169 -455 -169 -190 0 -312 47 -432 166 -148 147 -208 363 -170 609
42 272 195 451 440 515 90 24 258 26 341 5z m1916 -43 c122 -34 217 -109 266
-212 36 -74 44 -211 18 -307 -63 -232 -306 -359 -587 -307 l-28 6 0 -596 0
-596 -100 0 c-62 0 -113 5 -133 14 -49 20 -93 77 -106 136 -8 35 -11 330 -11
934 0 725 2 886 13 895 8 6 65 19 128 30 161 27 448 28 540 3z m1015 -23 c55
-26 115 -92 152 -166 87 -171 196 -466 254 -683 25 -98 78 -347 78 -372 0 -4
-55 -8 -122 -8 -182 0 -221 27 -253 178 -9 42 -19 85 -22 95 -4 15 -23 17
-223 17 l-219 0 -11 -37 c-6 -21 -20 -86 -32 -145 l-21 -108 -101 0 c-114 0
-139 9 -173 59 -41 61 -28 180 47 416 105 327 278 681 373 761 31 26 34 27
132 20 69 -4 112 -13 141 -27z m904 5 c43 -25 69 -61 80 -110 10 -43 13 -1065
4 -1101 -6 -22 -11 -23 -119 -23 -100 0 -116 2 -146 23 -19 12 -44 42 -56 67
l-23 44 0 556 c0 306 3 560 8 564 4 5 55 6 113 4 81 -3 114 -9 139 -24z m641
-3 c132 -51 178 -107 334 -413 68 -133 128 -244 134 -246 7 -2 12 105 13 340
l3 343 70 3 c85 4 149 -11 193 -44 63 -49 62 -39 62 -655 l0 -559 -110 0
c-230 0 -283 47 -500 440 -123 222 -158 280 -171 280 -5 0 -9 -162 -9 -360 l0
-360 -97 0 c-121 0 -171 20 -208 84 l-25 43 0 560 c0 308 3 563 8 568 14 15
247 -3 303 -24z m-916 -1395 c123 -33 254 -111 370 -220 39 -36 74 -66 78 -66
19 0 -50 159 -100 228 l-33 47 27 3 c48 6 225 -19 281 -40 102 -38 166 -82
269 -182 40 -38 75 -67 79 -63 6 5 -42 94 -95 176 l-15 24 44 -6 c116 -16 452
-153 534 -218 16 -12 42 -43 57 -68 55 -86 29 -169 -66 -212 -38 -18 -104 -19
-1466 -19 -1556 0 -1494 -2 -1553 56 -31 32 -33 61 -6 113 43 85 188 182 405
272 65 27 94 33 155 33 73 1 78 -1 209 -67 73 -37 136 -65 139 -63 9 10 -47
73 -112 126 -36 30 -66 56 -66 60 0 9 81 27 224 51 l111 18 78 -39 c79 -40
331 -202 342 -220 14 -23 24 -7 11 18 -15 29 -155 185 -193 215 -43 34 -30 46
55 50 166 7 189 6 237 -7z m-5448 -798 c4 -7 15 -33 24 -57 8 -25 20 -46 26
-48 5 -2 18 23 27 57 14 47 21 60 37 60 40 0 34 -51 -19 -158 -35 -72 -56 -68
-100 18 -18 36 -35 82 -39 103 -5 33 -3 37 15 37 11 0 24 -6 29 -12z m323 -1
c0 -22 -23 -37 -56 -37 -31 0 -53 -15 -40 -27 5 -6 27 -10 64 -12 24 -2 12
-31 -15 -37 -57 -12 -60 -14 -39 -30 11 -8 35 -14 54 -14 26 0 33 -4 30 -17
-5 -28 -97 -30 -129 -4 -21 17 -24 27 -24 89 0 91 9 102 91 102 46 0 64 -4 64
-13z m168 -3 c24 -17 28 -49 11 -87 -9 -19 -7 -31 5 -55 22 -42 20 -52 -8 -52
-17 0 -27 9 -36 30 -7 17 -21 35 -31 41 -17 9 -19 6 -19 -26 0 -39 -21 -55
-45 -35 -11 9 -15 35 -15 100 0 47 3 90 7 93 13 13 109 7 131 -9z m200 4 c26
-26 14 -40 -26 -33 -29 4 -42 2 -51 -9 -11 -13 -9 -17 14 -26 14 -5 31 -10 36
-10 16 0 49 -40 49 -60 0 -36 -35 -60 -90 -60 -38 0 -52 4 -60 19 -15 29 -14
29 38 28 63 -3 64 21 2 43 -39 14 -45 20 -48 47 -5 46 26 73 81 73 24 0 48 -5
55 -12z m273 -9 c15 -15 19 -27 14 -42 -8 -27 -8 -44 0 -79 11 -41 -23 -68
-84 -68 -71 0 -81 14 -81 114 0 45 3 86 7 89 3 4 33 7 65 7 46 0 62 -4 79 -21z
m187 5 c24 -17 30 -62 11 -92 -9 -14 -8 -25 5 -50 21 -41 20 -52 -4 -52 -13 0
-28 13 -41 35 -12 19 -27 35 -35 35 -9 0 -14 -12 -14 -35 0 -27 -4 -35 -18
-35 -33 0 -42 22 -42 101 0 43 3 84 6 93 8 22 101 22 132 0z m215 4 c36 -19
46 -40 47 -96 0 -73 -28 -102 -99 -102 -43 0 -53 4 -75 31 -58 69 -16 179 69
179 20 0 46 -5 58 -12z m238 2 c24 -13 49 -61 49 -95 0 -34 -25 -82 -49 -95
-37 -19 -105 -12 -129 13 -43 45 -37 139 11 172 25 17 89 20 118 5z m228 -16
c51 -43 51 -115 0 -163 -17 -15 -36 -21 -70 -21 -69 0 -79 14 -79 114 0 45 3
86 7 89 3 4 30 7 59 7 42 0 59 -5 83 -26z m469 10 c23 -16 29 -53 11 -71 -8
-8 -6 -18 7 -38 16 -25 16 -27 -3 -53 -17 -23 -29 -27 -75 -30 -39 -2 -58 1
-67 12 -13 16 -19 165 -7 184 11 18 107 15 134 -4z m212 -3 c0 -21 -19 -31
-59 -31 -15 0 -31 -3 -34 -7 -12 -12 15 -33 43 -33 14 0 30 -3 33 -7 12 -12
-15 -33 -43 -33 -14 0 -30 -3 -33 -7 -14 -14 17 -33 55 -33 32 0 39 -3 36 -17
-2 -14 -15 -19 -55 -21 -76 -4 -93 16 -93 111 0 43 5 78 12 85 7 7 39 12 75
12 55 0 63 -2 63 -19z m74 13 c12 -5 16 -21 16 -75 0 -59 3 -70 21 -79 11 -7
32 -9 46 -5 21 5 24 3 21 -17 -3 -20 -10 -23 -52 -26 -75 -5 -86 11 -86 120 0
87 3 94 34 82z m281 -4 c12 -20 -17 -40 -56 -40 -27 0 -39 -4 -39 -14 0 -14
28 -29 46 -25 21 4 34 -2 34 -15 0 -16 -21 -26 -56 -26 -15 0 -24 -6 -24 -15
0 -16 36 -28 71 -23 18 2 24 -2 24 -17 0 -17 -8 -20 -56 -23 -72 -4 -91 15
-97 98 -6 89 11 110 88 110 32 0 62 -5 65 -10z m193 -2 c26 -26 14 -40 -27
-33 -32 5 -43 3 -60 -14 -25 -25 -27 -58 -5 -89 22 -31 52 -29 60 6 10 40 13
43 35 32 24 -13 25 -57 2 -82 -11 -12 -30 -18 -62 -18 -77 1 -114 47 -100 124
10 55 47 86 103 86 23 0 47 -5 54 -12z m191 -2 c48 -25 65 -91 36 -146 -20
-38 -43 -50 -99 -50 -66 0 -76 15 -76 114 0 45 3 86 7 89 12 13 104 7 132 -7z
m237 2 c10 -17 -25 -38 -64 -38 -26 0 -33 -4 -30 -17 2 -13 14 -19 41 -21 60
-5 44 -42 -19 -42 -14 0 -24 -6 -24 -14 0 -17 21 -26 59 -26 33 0 42 -7 34
-26 -3 -10 -22 -14 -58 -14 -46 0 -56 4 -75 28 -19 23 -22 36 -17 96 3 42 10
72 18 77 21 13 127 11 135 -3z m242 -4 c23 -16 28 -48 13 -73 -6 -9 -4 -23 6
-38 15 -22 15 -26 -4 -51 -17 -22 -29 -28 -72 -30 -75 -4 -81 4 -81 108 0 47
3 90 7 93 13 13 109 7 131 -9z m200 0 c26 -18 30 -65 7 -84 -13 -10 -12 -17 5
-51 26 -50 25 -59 -5 -59 -19 0 -29 9 -42 35 -21 44 -43 46 -43 5 0 -34 -22
-49 -45 -30 -11 9 -15 35 -15 100 0 47 3 90 7 93 13 13 109 7 131 -9z m228 -7
c20 -18 28 -35 31 -73 5 -43 2 -54 -22 -82 -23 -28 -33 -32 -74 -32 -57 0 -86
19 -101 65 -34 102 86 191 166 122z m233 -3 c27 -23 31 -32 31 -79 0 -65 -20
-93 -75 -105 -75 -17 -125 27 -125 111 0 88 100 131 169 73z m214 6 c38 -30
52 -80 34 -123 -8 -19 -25 -42 -38 -51 -27 -19 -109 -22 -127 -4 -13 13 -17
179 -5 191 3 4 30 7 58 7 37 0 60 -6 78 -20z m155 8 c7 -7 12 -41 12 -83 0
-91 -16 -117 -68 -113 -43 4 -59 34 -20 40 21 3 23 8 26 73 1 39 4 76 7 83 6
15 27 16 43 0z m202 -7 c0 -21 -19 -31 -61 -31 -42 0 -37 -26 6 -34 54 -10 41
-46 -16 -46 -23 0 -25 -25 -3 -34 9 -3 29 -6 46 -6 23 0 29 -4 26 -17 -2 -14
-15 -19 -55 -21 -74 -4 -93 18 -93 109 0 87 11 99 91 99 51 0 59 -2 59 -19z
m168 7 c25 -25 13 -38 -30 -36 -58 4 -57 -17 2 -45 53 -26 65 -62 31 -96 -37
-37 -141 -22 -141 20 0 5 21 8 48 6 61 -3 65 22 7 41 -44 14 -55 26 -55 60 0
36 34 62 83 62 24 0 48 -5 55 -12z m452 -8 c43 -43 7 -120 -56 -120 -20 0 -24
-5 -24 -30 0 -34 -22 -49 -45 -30 -11 9 -15 35 -15 100 0 47 3 90 7 93 3 4 30
7 60 7 40 0 58 -5 73 -20z m154 1 c21 -23 69 -160 62 -178 -8 -21 -34 -15 -52
12 -23 35 -70 35 -86 0 -13 -28 -43 -33 -52 -9 -3 8 4 43 15 77 36 108 74 141
113 98z m234 -3 c-2 -17 -11 -24 -30 -26 -28 -3 -28 -4 -28 -83 0 -73 -2 -79
-20 -79 -26 0 -32 15 -34 92 -1 61 -2 63 -28 66 -19 2 -28 9 -28 21 0 28 9 31
92 31 77 0 79 -1 76 -22z m81 8 c8 -9 11 -46 9 -102 -3 -78 -5 -89 -22 -92
-29 -6 -36 16 -36 116 0 83 2 92 19 92 10 0 24 -6 30 -14z m185 -2 c26 -26 19
-36 -21 -30 -21 4 -45 2 -53 -4 -13 -9 -12 -12 4 -25 11 -8 27 -15 35 -15 46
-1 68 -65 34 -102 -19 -21 -102 -25 -121 -6 -25 25 -14 38 26 33 67 -10 84 27
19 40 -67 15 -85 58 -42 100 29 30 94 34 119 9z m184 4 c24 -24 14 -39 -20
-33 -18 3 -40 1 -48 -5 -13 -9 -12 -12 4 -25 11 -8 26 -15 35 -15 24 0 51 -31
51 -58 0 -40 -27 -62 -76 -62 -55 0 -74 8 -74 30 0 16 7 18 43 17 51 -2 59 23
11 38 -68 22 -85 67 -38 104 30 23 93 28 112 9z m208 0 c10 -17 -25 -38 -64
-38 -26 0 -33 -4 -30 -17 3 -18 8 -19 56 -22 12 0 22 -7 22 -15 0 -16 -21 -26
-56 -26 -27 0 -33 -24 -8 -34 9 -3 31 -6 51 -6 27 0 34 -4 31 -17 -2 -14 -15
-19 -59 -21 -77 -4 -94 16 -94 108 0 88 10 100 86 100 33 0 61 -5 65 -12z
m174 -8 c24 -24 26 -62 5 -80 -12 -10 -12 -16 -1 -39 7 -14 17 -36 20 -48 6
-20 4 -23 -18 -23 -20 0 -30 8 -43 35 -11 22 -23 34 -33 32 -8 -2 -14 -9 -12
-16 6 -28 -10 -52 -31 -49 -20 3 -22 9 -25 92 -2 49 -1 95 2 103 9 22 112 17
136 -7z m108 8 c8 -8 12 -45 12 -100 0 -70 -3 -90 -15 -94 -33 -13 -45 15 -45
106 0 47 3 90 7 93 10 11 28 8 41 -5z m202 -7 c0 -21 -19 -31 -61 -31 -38 0
-39 -27 -1 -36 53 -11 55 -13 42 -29 -7 -8 -25 -15 -41 -15 -18 0 -29 -5 -29
-14 0 -17 22 -26 62 -26 23 0 29 -4 26 -17 -7 -36 -106 -33 -134 4 -8 11 -13
44 -14 85 0 86 11 98 91 98 51 0 59 -2 59 -19z m-5055 -91 c9 -15 -40 -33 -69
-26 -17 4 -23 11 -20 21 7 17 79 21 89 5z m3278 3 c13 -12 -15 -33 -44 -33
-29 0 -44 13 -34 30 7 11 68 14 78 3z"/>
<path  d="M4481 3314 c-17 -21 -21 -41 -21 -94 0 -57 3 -70 24 -89 33 -31 92
-26 119 11 34 45 23 163 -17 190 -6 4 -28 8 -48 8 -28 0 -42 -6 -57 -26z"/>
<path  d="M5028 3179 c-52 -20 -31 -79 28 -79 39 0 57 20 52 57 -3 32 -32 40
-80 22z"/>
<path d="M6530 3330 c-11 -11 -20 -29 -20 -40 0 -17 7 -20 51 -20 59 0 89 13
89 40 0 41 -85 55 -120 20z"/>
<path d="M2602 2439 c-53 -27 -96 -78 -124 -149 -19 -47 -22 -75 -23 -190 0
-156 16 -223 68 -292 45 -58 103 -89 183 -96 123 -10 201 33 253 141 74 153
52 433 -42 536 -64 69 -224 95 -315 50z"/>
<path d="M4493 2423 c-10 -3 -13 -42 -13 -144 0 -163 -7 -153 115 -154 130 0
170 37 170 154 -1 115 -45 152 -182 150 -43 0 -84 -3 -90 -6z"/>
<path d="M5683 2348 c-24 -30 -133 -314 -133 -344 0 -2 63 -4 141 -4 l141 0
-7 33 c-13 57 -118 327 -128 327 -3 0 -9 -6 -14 -12z"/>
<path d="M1420 415 c0 -18 5 -25 19 -25 26 0 36 17 21 35 -19 23 -40 18 -40
-10z"/>
<path d="M1887 433 c-16 -15 -6 -33 18 -33 28 0 34 24 9 34 -19 7 -19 7 -27
-1z"/>
<path d="M1880 341 c0 -16 6 -21 26 -21 33 0 30 33 -4 38 -17 3 -22 -2 -22
-17z"/>
<path d="M2087 433 c-15 -14 -7 -43 12 -43 26 0 36 17 21 35 -14 16 -23 19
-33 8z"/>
<path d="M2298 428 c-32 -25 -27 -94 8 -110 23 -11 29 -10 45 11 25 30 24 66
-1 91 -23 23 -30 24 -52 8z"/>
<path d="M2526 424 c-32 -32 -11 -114 29 -114 42 0 61 82 27 113 -23 21 -36
21 -56 1z"/>
<path  d="M2756 433 c-10 -11 -7 -111 4 -118 6 -4 22 1 35 9 18 12 25 25 25 50
0 18 -6 38 -12 43 -19 15 -45 22 -52 16z"/>
<path d="M3233 433 c-22 -8 -14 -33 10 -33 30 0 40 10 26 27 -12 14 -16 15
-36 6z"/>
<path d="M3226 345 c-3 -9 0 -18 9 -21 21 -8 47 3 43 19 -7 18 -45 20 -52 2z"/>
<path d="M4184 426 c-3 -7 -4 -35 -2 -62 2 -36 7 -50 19 -52 47 -9 68 83 27
112 -28 20 -37 20 -44 2z"/>
<path d="M4657 433 c-15 -14 -6 -33 16 -33 30 0 40 10 26 27 -12 14 -32 17
-42 6z"/>
<path d="M4655 350 c-4 -6 -2 -17 5 -24 14 -18 52 -8 48 13 -4 19 -43 27 -53
11z"/>
<path d="M4867 433 c-15 -14 -7 -43 12 -43 23 0 34 23 18 39 -13 13 -21 14
-30 4z"/>
<path d="M5066 418 c-9 -12 -16 -32 -16 -43 0 -28 27 -65 49 -65 28 0 41 21
41 67 0 32 -5 45 -19 53 -28 15 -38 13 -55 -12z"/>
<path d="M5309 430 c-39 -22 -30 -102 12 -115 48 -16 78 66 39 105 -22 22 -28
23 -51 10z"/>
<path d="M5533 427 c-14 -19 -16 -87 -3 -103 31 -37 79 14 64 68 -10 34 -47
55 -61 35z"/>
<path d="M6514 425 c-4 -8 -4 -22 0 -30 7 -20 36 -8 36 15 0 23 -29 35 -36 15z"/>
<path d="M6697 403 c-14 -13 -6 -33 12 -33 14 0 18 5 14 20 -5 21 -15 25 -26
13z"/>
<path  d="M7736 433 c-14 -15 -5 -43 14 -43 13 0 20 7 20 19 0 19 -23 35 -34
24z"/>
</g>
</svg>
